# xmcd
#
# Track frame offsets: 
#        150
#        17084
#        31911
#        47920
#        64547
#        75890
#        90002
#        105480
#        118107
#        136321
#        152452
#        164126
#
# Disc length: 2400 seconds
#
# Revision: 3
# Processed by: cddbd v1.5.2PL0 Copyright (c) Steve Scherf et al.
# Submitted via: ExactAudioCopy v0.99pb4
#
DISCID=84095e0c
DTITLE=Blaine Larsen - Rockin' You Tonight
DYEAR=2006
DGENRE=Country
TTITLE0=I Don't Know What She Said
TTITLE1=Let Alone You
TTITLE2=Rockin' You Tonight
TTITLE3=Baby Don't Get Hooked On Me
TTITLE4=No Woman
TTITLE5=They Don't Grow Enough Roses
TTITLE6=I'm In Love With A Married Woman
TTITLE7=Spoken Like A Man
TTITLE8=Lips Of A Bottle [with Gretchen Wilson]
TTITLE9=Someone Is Me
TTITLE10=I Don't Wanna Work That Hard
TTITLE11=At The Gate
EXTD=
EXTT0=
EXTT1=
EXTT2=
EXTT3=
EXTT4=
EXTT5=
EXTT6=
EXTT7=
EXTT8=
EXTT9=
EXTT10=
EXTT11=
PLAYORDER=
